<svg xmlns="http://www.w3.org/2000/svg" width="72" height="72" viewBox="0 0 72 72" fill="none"><rect y="-0.000244141" width="72" height="72" rx="12" fill="white"></rect><path opacity="0.4" d="M37.3333 24.3331H29.3333C24.7733 24.3331 23 26.1064 23 30.6664V41.3331C23 44.3998 24.6667 47.6664 29.3333 47.6664H37.3333C41.8933 47.6664 43.6667 45.8931 43.6667 41.3331V30.6664C43.6667 26.1064 41.8933 24.3331 37.3333 24.3331Z" fill="#5C28D4"></path><path d="M35.3333 35.1731C36.7177 35.1731 37.84 34.0508 37.84 32.6664C37.84 31.282 36.7177 30.1598 35.3333 30.1598C33.9489 30.1598 32.8267 31.282 32.8267 32.6664C32.8267 34.0508 33.9489 35.1731 35.3333 35.1731Z" fill="#5C28D4"></path><path d="M48.8667 28.2264C48.32 27.9464 47.1733 27.6264 45.6133 28.7198L43.64 30.1064C43.6533 30.2931 43.6667 30.4664 43.6667 30.6664V41.3331C43.6667 41.5331 43.64 41.7064 43.64 41.8931L45.6133 43.2798C46.44 43.8664 47.16 44.0531 47.7333 44.0531C48.2267 44.0531 48.6133 43.9198 48.8667 43.7864C49.4133 43.5064 50.3333 42.7464 50.3333 40.8398V31.1731C50.3333 29.2664 49.4133 28.5064 48.8667 28.2264Z" fill="#5C28D4"></path></svg>