<svg xmlns="http://www.w3.org/2000/svg" width="72" height="72" viewBox="0 0 72 72" fill="none"><rect y="-0.000244141" width="72" height="72" rx="12" fill="#FFF3EC"></rect><path opacity="0.4" d="M34.3333 23.2664C35.2533 22.4797 36.76 22.4797 37.6933 23.2664L39.8 25.0797C40.2 25.4264 40.9467 25.7064 41.48 25.7064H43.7467C45.16 25.7064 46.32 26.8664 46.32 28.2797V30.5463C46.32 31.0663 46.6 31.8264 46.9467 32.2264L48.76 34.333C49.5467 35.253 49.5467 36.7597 48.76 37.6931L46.9467 39.7997C46.6 40.1997 46.32 40.9464 46.32 41.4797V43.7464C46.32 45.1597 45.16 46.3197 43.7467 46.3197H41.48C40.96 46.3197 40.2 46.5997 39.8 46.9464L37.6933 48.7597C36.7733 49.5464 35.2667 49.5464 34.3333 48.7597L32.2267 46.9464C31.8267 46.5997 31.08 46.3197 30.5467 46.3197H28.24C26.8267 46.3197 25.6667 45.1597 25.6667 43.7464V41.4663C25.6667 40.9463 25.3867 40.1997 25.0533 39.7997L23.2533 37.6797C22.48 36.7597 22.48 35.2664 23.2533 34.3464L25.0533 32.2264C25.3867 31.8264 25.6667 31.0797 25.6667 30.5597V28.2797C25.6667 26.8664 26.8267 25.7064 28.24 25.7064H30.5467C31.0667 25.7064 31.8267 25.4264 32.2267 25.0797L34.3333 23.2664Z" fill="#FF6A0F"></path><path d="M42.1066 34.7597C41.8533 34.3997 41.4267 34.1998 40.92 34.1998H38.32C38.1467 34.1998 37.9867 34.1331 37.88 33.9997C37.7733 33.8664 37.72 33.6931 37.7467 33.5064L38.0666 31.4264C38.2 30.8131 37.7867 30.1064 37.1733 29.9064C36.6 29.693 35.92 29.9864 35.6533 30.3864L33.0667 34.2264V33.7464C33.0667 32.8131 32.6667 32.4264 31.68 32.4264H31.0267C30.04 32.4264 29.64 32.8131 29.64 33.7464V40.1198C29.64 41.0531 30.04 41.4397 31.0267 41.4397H31.68C32.6133 41.4397 33.0133 41.0797 33.0533 40.2264L35.0133 41.733C35.28 41.9997 35.88 42.1464 36.3067 42.1464H38.7733C39.6266 42.1464 40.48 41.5064 40.6667 40.7197L42.2267 35.973C42.4 35.5464 42.36 35.1064 42.1066 34.7597Z" fill="#FF6A0F"></path></svg>