<svg xmlns="http://www.w3.org/2000/svg" width="72" height="72" viewBox="0 0 72 72" fill="none"><rect y="-0.000244141" width="72" height="72" rx="12" fill="white"></rect><path opacity="0.4" d="M49.2934 28.5464V37.2131H22.6667V28.5464C22.6667 25.3064 25.3067 22.6664 28.5467 22.6664H43.4134C46.6534 22.6664 49.2934 25.3064 49.2934 28.5464Z" fill="#307B74"></path><path d="M22.6667 37.2264V37.4931C22.6667 40.7464 25.3067 43.3731 28.5467 43.3731H33.6667C34.4 43.3731 35 43.9731 35 44.7064V45.9997C35 46.7331 34.4 47.3331 33.6667 47.3331H30.44C29.8934 47.3331 29.44 47.7864 29.44 48.3331C29.44 48.8797 29.88 49.3331 30.44 49.3331H41.5734C42.12 49.3331 42.5734 48.8797 42.5734 48.3331C42.5734 47.7864 42.12 47.3331 41.5734 47.3331H38.3467C37.6134 47.3331 37.0134 46.7331 37.0134 45.9997V44.7064C37.0134 43.9731 37.6134 43.3731 38.3467 43.3731H43.4267C46.68 43.3731 49.3067 40.7331 49.3067 37.4931V37.2264H22.6667Z" fill="#307B74"></path></svg>