<svg xmlns="http://www.w3.org/2000/svg" width="72" height="72" viewBox="0 0 72 72" fill="none"><rect y="-0.000244141" width="72" height="72" rx="12" fill="#EEF4F4"></rect><path opacity="0.4" d="M49.2933 28.5464V37.213H22.6667V28.5464C22.6667 25.3064 25.3067 22.6664 28.5467 22.6664H43.4133C46.6533 22.6664 49.2933 25.3064 49.2933 28.5464Z" fill="#307B74"></path><path d="M22.6667 37.2264V37.4931C22.6667 40.7464 25.3067 43.3731 28.5467 43.3731H33.6667C34.4 43.3731 35 43.9731 35 44.7064V45.9998C35 46.7331 34.4 47.3331 33.6667 47.3331H30.44C29.8933 47.3331 29.44 47.7864 29.44 48.3331C29.44 48.8798 29.88 49.3331 30.44 49.3331H41.5733C42.12 49.3331 42.5733 48.8798 42.5733 48.3331C42.5733 47.7864 42.12 47.3331 41.5733 47.3331H38.3467C37.6133 47.3331 37.0133 46.7331 37.0133 45.9998V44.7064C37.0133 43.9731 37.6133 43.3731 38.3467 43.3731H43.4267C46.68 43.3731 49.3067 40.7331 49.3067 37.4931V37.2264H22.6667Z" fill="#307B74"></path></svg>