<svg xmlns="http://www.w3.org/2000/svg" width="72" height="72" viewBox="0 0 72 72" fill="none"><rect y="-0.000244141" width="72" height="72" rx="12" fill="#FBEDED"></rect><path opacity="0.4" d="M45.3333 31.9997C45.3333 33.933 44.76 35.7064 43.7733 37.1864C42.3333 39.3197 40.0533 40.8264 37.4 41.2131C36.9467 41.2931 36.48 41.333 36 41.333C35.52 41.333 35.0533 41.2931 34.6 41.2131C31.9467 40.8264 29.6667 39.3197 28.2267 37.1864C27.24 35.7064 26.6667 33.933 26.6667 31.9997C26.6667 26.8397 30.84 22.6664 36 22.6664C41.16 22.6664 45.3333 26.8397 45.3333 31.9997Z" fill="#C81A1A"></path><path d="M48.3333 44.6264L46.1333 45.1464C45.64 45.2664 45.2533 45.6397 45.1467 46.1331L44.68 48.0931C44.4267 49.1597 43.0667 49.4797 42.36 48.6397L36 41.333L29.64 48.653C28.9333 49.493 27.5733 49.173 27.32 48.1064L26.8533 46.1464C26.7333 45.653 26.3467 45.2664 25.8667 45.1597L23.6667 44.6397C22.6533 44.3997 22.2933 43.133 23.0267 42.3997L28.2267 37.1997C29.6667 39.333 31.9467 40.8397 34.6 41.2264C35.0533 41.3064 35.52 41.3464 36 41.3464C36.48 41.3464 36.9467 41.3064 37.4 41.2264C40.0533 40.8397 42.3333 39.333 43.7733 37.1997L48.9733 42.3997C49.7067 43.1197 49.3467 44.3864 48.3333 44.6264Z" fill="#C81A1A"></path><path d="M36.7733 27.9731L37.56 29.5465C37.6667 29.7598 37.9467 29.9731 38.2 30.0131L39.6267 30.2531C40.5333 30.3998 40.7466 31.0665 40.0933 31.7198L38.9866 32.8264C38.8 33.0131 38.6933 33.3731 38.76 33.6398L39.08 35.0131C39.3333 36.0931 38.76 36.5198 37.8 35.9464L36.4667 35.1598C36.2267 35.0131 35.8267 35.0131 35.5866 35.1598L34.2533 35.9464C33.2933 36.5064 32.72 36.0931 32.9733 35.0131L33.2933 33.6398C33.3467 33.3865 33.2533 33.0131 33.0667 32.8264L31.96 31.7198C31.3067 31.0665 31.52 30.4131 32.4267 30.2531L33.8533 30.0131C34.0933 29.9731 34.3733 29.7598 34.48 29.5465L35.2667 27.9731C35.6533 27.1198 36.3467 27.1198 36.7733 27.9731Z" fill="#C81A1A"></path></svg>