<svg xmlns="http://www.w3.org/2000/svg" width="72" height="72" viewBox="0 0 72 72" fill="none"><rect y="-0.000244141" width="72" height="72" rx="12" fill="white"></rect><path opacity="0.4" d="M49.3333 30.6664V41.5864C49.3333 46.4397 46.44 49.3331 41.5867 49.3331H30.4133C25.56 49.3331 22.6667 46.4397 22.6667 41.5864V30.6797L49.3333 30.6664Z" fill="#FF6A0F"></path><path d="M32 43.6664C31.8533 43.6664 31.6933 43.6264 31.56 43.5598C30.5333 43.0398 29.6533 42.2664 29.0133 41.3064C28.48 40.5064 28.48 39.4798 29.0133 38.6798C29.6533 37.7198 30.5333 36.9464 31.56 36.4398C32.0533 36.1864 32.6533 36.3998 32.9067 36.8931C33.16 37.3864 32.96 37.9864 32.4533 38.2398C31.7333 38.5998 31.12 39.1464 30.68 39.8131C30.6 39.9331 30.6 40.0931 30.68 40.2264C31.12 40.8931 31.7333 41.4398 32.4533 41.7998C32.9467 42.0531 33.1467 42.6531 32.9067 43.1464C32.72 43.4664 32.36 43.6664 32 43.6664Z" fill="#FF6A0F"></path><path d="M40.28 43.6664C39.9067 43.6664 39.56 43.4664 39.3867 43.1198C39.1333 42.6264 39.3333 42.0264 39.84 41.7731C40.56 41.4131 41.1733 40.8664 41.6133 40.1998C41.6933 40.0798 41.6933 39.9198 41.6133 39.7864C41.1733 39.1198 40.56 38.5731 39.84 38.2131C39.3467 37.9598 39.1467 37.3598 39.3867 36.8664C39.64 36.3731 40.24 36.1731 40.7333 36.4131C41.76 36.9331 42.64 37.7064 43.28 38.6664C43.8133 39.4664 43.8133 40.4931 43.28 41.2931C42.64 42.2531 41.76 43.0264 40.7333 43.5331C40.5733 43.6264 40.4267 43.6664 40.28 43.6664Z" fill="#FF6A0F"></path><path d="M49.3333 30.4131V30.6664L22.6667 30.6797V30.4131C22.6667 25.5597 25.56 22.6664 30.4133 22.6664H41.5867C46.44 22.6664 49.3333 25.5597 49.3333 30.4131Z" fill="#FF6A0F"></path></svg>