<svg xmlns="http://www.w3.org/2000/svg" width="72" height="72" viewBox="0 0 72 72" fill="none"><rect y="-0.000244141" width="72" height="72" rx="12" fill="#F2EEFC"></rect><path opacity="0.4" d="M46.48 30.7864C46.48 30.9864 46.48 31.1864 46.4667 31.373C44.4267 30.613 42.0267 31.0797 40.4267 32.5197C39.3467 31.5464 37.9467 30.9997 36.4533 30.9997C33.1733 30.9997 30.5067 33.6797 30.5067 36.9864C30.5067 40.7597 32.4 43.5197 34.2133 45.3064C34.0667 45.293 33.9467 45.2664 33.84 45.2264C30.3867 44.0397 22.6667 39.133 22.6667 30.7864C22.6667 27.1064 25.6267 24.1331 29.28 24.1331C31.4533 24.1331 33.3733 25.173 34.5733 26.7864C35.7867 25.173 37.7067 24.1331 39.8667 24.1331C43.52 24.1331 46.48 27.1064 46.48 30.7864Z" fill="#5C28D4"></path><path d="M44 32.7864C42.5733 32.7864 41.28 33.4797 40.48 34.5464C39.68 33.4797 38.4 32.7864 36.96 32.7864C34.5333 32.7864 32.56 34.7597 32.56 37.2131C32.56 38.1597 32.7067 39.0264 32.9734 39.8264C34.2267 43.7864 38.08 46.1464 39.9867 46.7997C40.2533 46.8931 40.6934 46.8931 40.9734 46.7997C42.88 46.1464 46.7333 43.7864 47.9867 39.8264C48.2533 39.013 48.4 38.1464 48.4 37.2131C48.4 34.7597 46.4267 32.7864 44 32.7864Z" fill="#5C28D4"></path></svg>