<svg xmlns="http://www.w3.org/2000/svg" width="72" height="72" viewBox="0 0 72 72" fill="none"><rect width="72" height="72" rx="12" fill="#FBEDED"></rect><path opacity="0.4" d="M46.4801 30.7867C46.4801 30.9867 46.4801 31.1867 46.4668 31.3734C44.4268 30.6134 42.0268 31.08 40.4268 32.52C39.3468 31.5467 37.9467 31 36.4534 31C33.1734 31 30.5068 33.68 30.5068 36.9867C30.5068 40.76 32.4001 43.52 34.2134 45.3067C34.0668 45.2933 33.9468 45.2667 33.8401 45.2267C30.3868 44.04 22.6667 39.1333 22.6667 30.7867C22.6667 27.1067 25.6267 24.1334 29.2801 24.1334C31.4534 24.1334 33.3734 25.1733 34.5734 26.7867C35.7867 25.1733 37.7067 24.1334 39.8667 24.1334C43.5201 24.1334 46.4801 27.1067 46.4801 30.7867Z" fill="#C81A1A"></path><path d="M44 32.7867C42.5734 32.7867 41.28 33.48 40.48 34.5467C39.68 33.48 38.4 32.7867 36.96 32.7867C34.5334 32.7867 32.5601 34.76 32.5601 37.2134C32.5601 38.16 32.7067 39.0267 32.9734 39.8267C34.2267 43.7867 38.08 46.1467 39.9867 46.8C40.2534 46.8934 40.6934 46.8934 40.9734 46.8C42.8801 46.1467 46.7334 43.7867 47.9867 39.8267C48.2534 39.0133 48.4 38.1467 48.4 37.2134C48.4 34.76 46.4267 32.7867 44 32.7867Z" fill="#C81A1A"></path></svg>