<svg xmlns="http://www.w3.org/2000/svg" width="72" height="72" viewBox="0 0 72 72" fill="none"><rect width="72" height="72" rx="12" fill="#F2EEFC"></rect><path opacity="0.4" d="M47.3334 29.3334V40H28.4667C26.3734 40 24.6667 41.7067 24.6667 43.8V29.3334C24.6667 24 26.0001 22.6667 31.3334 22.6667H40.6667C46.0001 22.6667 47.3334 24 47.3334 29.3334Z" fill="#5C28D4"></path><path d="M47.3334 40V44.6667C47.3334 47.24 45.2401 49.3333 42.6667 49.3333H29.3334C26.7601 49.3333 24.6667 47.24 24.6667 44.6667V43.8C24.6667 41.7067 26.3734 40 28.4667 40H47.3334Z" fill="#5C28D4"></path><path d="M41.3334 30.3333H30.6667C30.1201 30.3333 29.6667 29.88 29.6667 29.3333C29.6667 28.7866 30.1201 28.3333 30.6667 28.3333H41.3334C41.8801 28.3333 42.3334 28.7866 42.3334 29.3333C42.3334 29.88 41.8801 30.3333 41.3334 30.3333Z" fill="#5C28D4"></path><path d="M37.3334 35H30.6667C30.1201 35 29.6667 34.5467 29.6667 34C29.6667 33.4533 30.1201 33 30.6667 33H37.3334C37.8801 33 38.3334 33.4533 38.3334 34C38.3334 34.5467 37.8801 35 37.3334 35Z" fill="#292D32"></path></svg>