<svg xmlns="http://www.w3.org/2000/svg" width="72" height="72" viewBox="0 0 72 72" fill="none"><rect width="72" height="72" rx="12" fill="#EEF4F4"></rect><path opacity="0.4" d="M40.0002 25.3333H32.0002C28.3202 25.3333 25.3335 28.32 25.3335 32V40C25.3335 43.68 28.3202 46.6666 32.0002 46.6666H40.0002C43.6802 46.6666 46.6668 43.68 46.6668 40V32C46.6668 28.32 43.6802 25.3333 40.0002 25.3333ZM43.0135 39.0133C43.0135 41.2266 41.2268 43.0133 39.0135 43.0133H32.9868C30.7735 43.0133 28.9868 41.2266 28.9868 39.0133V32.9866C28.9868 30.7733 30.7735 28.9866 32.9868 28.9866H39.0002C41.2135 28.9866 43.0002 30.7733 43.0002 32.9866V39.0133H43.0135Z" fill="#307B74"></path><path d="M32.0801 23.6667V25.3334H32.0001C31.3334 25.3334 30.6934 25.4267 30.0801 25.6134V23.6667C30.0801 23.12 30.5201 22.6667 31.0801 22.6667C31.6267 22.6667 32.0801 23.12 32.0801 23.6667Z" fill="#307B74"></path><path d="M37 23.6667V25.3334H35V23.6667C35 23.12 35.4533 22.6667 36 22.6667C36.5467 22.6667 37 23.12 37 23.6667Z" fill="#307B74"></path><path d="M41.9331 23.6667V25.6134C41.3198 25.4267 40.6664 25.3334 39.9998 25.3334H39.9331V23.6667C39.9331 23.12 40.3864 22.6667 40.9331 22.6667C41.4798 22.6667 41.9331 23.12 41.9331 23.6667Z" fill="#307B74"></path><path d="M49.3334 31.0667C49.3334 31.6267 48.8934 32.0667 48.3334 32.0667H46.6667V32C46.6667 31.3333 46.5734 30.68 46.3867 30.0667H48.3334C48.8934 30.0667 49.3334 30.52 49.3334 31.0667Z" fill="#307B74"></path><path d="M49.3332 36C49.3332 36.5467 48.8932 37 48.3332 37H46.6665V35H48.3332C48.8932 35 49.3332 35.44 49.3332 36Z" fill="#307B74"></path><path d="M49.3334 40.9333C49.3334 41.48 48.8934 41.9334 48.3334 41.9334H46.3867C46.5734 41.32 46.6667 40.6667 46.6667 40V39.9333H48.3334C48.8934 39.9333 49.3334 40.3733 49.3334 40.9333Z" fill="#307B74"></path><path d="M41.9331 46.3867V48.3333C41.9331 48.88 41.4798 49.3333 40.9331 49.3333C40.3864 49.3333 39.9331 48.88 39.9331 48.3333V46.6667H39.9998C40.6664 46.6667 41.3198 46.5733 41.9331 46.3867Z" fill="#307B74"></path><path d="M37.0132 46.6667V48.3334C37.0132 48.88 36.5599 49.3334 36.0132 49.3334C35.4532 49.3334 35.0132 48.88 35.0132 48.3334V46.6667H37.0132Z" fill="#307B74"></path><path d="M32.0801 46.6667V48.3333C32.0801 48.88 31.6267 49.3333 31.0801 49.3333C30.5201 49.3333 30.0801 48.88 30.0801 48.3333V46.3867C30.6934 46.5733 31.3334 46.6667 32.0001 46.6667H32.0801Z" fill="#307B74"></path><path d="M25.6132 30.0667C25.4265 30.68 25.3332 31.3333 25.3332 32V32.0667H23.6665C23.1198 32.0667 22.6665 31.6267 22.6665 31.0667C22.6665 30.52 23.1198 30.0667 23.6665 30.0667H25.6132Z" fill="#307B74"></path><path d="M25.3332 35V37H23.6665C23.1198 37 22.6665 36.5467 22.6665 36C22.6665 35.44 23.1198 35 23.6665 35H25.3332Z" fill="#307B74"></path><path d="M25.6132 41.9334H23.6665C23.1198 41.9334 22.6665 41.48 22.6665 40.9333C22.6665 40.3733 23.1198 39.9333 23.6665 39.9333H25.3332V40C25.3332 40.6667 25.4265 41.32 25.6132 41.9334Z" fill="#307B74"></path><path d="M39.0135 28.9867H32.9868C30.7735 28.9867 28.9868 30.7734 28.9868 32.9867V39C28.9868 41.2134 30.7735 43 32.9868 43H39.0002C41.2135 43 43.0002 41.2134 43.0002 39V32.9867C43.0135 30.7867 41.2135 28.9867 39.0135 28.9867ZM38.1202 37.3867L36.8668 39.5734C36.6801 39.8934 36.3468 40.08 36.0002 40.08C35.8268 40.08 35.6535 40.04 35.5068 39.9467C35.0268 39.6667 34.8668 39.0534 35.1335 38.5867L36.0401 37.0134H35.2535C34.6135 37.0134 34.0935 36.7334 33.8135 36.2534C33.5335 35.7734 33.5601 35.1734 33.8668 34.6267L35.1202 32.44C35.4002 31.96 36.0135 31.8 36.4801 32.0667C36.9601 32.3467 37.1202 32.96 36.8535 33.4267L35.9468 35H36.7335C37.3735 35 37.8935 35.28 38.1735 35.76C38.4668 36.24 38.4402 36.8267 38.1202 37.3867Z" fill="#307B74"></path></svg>