<svg xmlns="http://www.w3.org/2000/svg" width="72" height="72" viewBox="0 0 72 72" fill="none"><rect width="72" height="72" rx="12" fill="#FFF3EC"></rect><path opacity="0.4" d="M34.3338 23.2667C35.2538 22.48 36.7605 22.48 37.6938 23.2667L39.8005 25.08C40.2005 25.4267 40.9471 25.7067 41.4805 25.7067H43.7472C45.1605 25.7067 46.3205 26.8667 46.3205 28.28V30.5466C46.3205 31.0666 46.6005 31.8267 46.9471 32.2267L48.7605 34.3333C49.5472 35.2533 49.5472 36.76 48.7605 37.6934L46.9471 39.8C46.6005 40.2 46.3205 40.9467 46.3205 41.48V43.7467C46.3205 45.16 45.1605 46.32 43.7472 46.32H41.4805C40.9605 46.32 40.2005 46.6 39.8005 46.9467L37.6938 48.76C36.7738 49.5467 35.2672 49.5467 34.3338 48.76L32.2272 46.9467C31.8272 46.6 31.0805 46.32 30.5472 46.32H28.2405C26.8271 46.32 25.6672 45.16 25.6672 43.7467V41.4666C25.6672 40.9466 25.3872 40.2 25.0538 39.8L23.2538 37.68C22.4805 36.76 22.4805 35.2667 23.2538 34.3467L25.0538 32.2267C25.3872 31.8267 25.6672 31.08 25.6672 30.56V28.28C25.6672 26.8667 26.8271 25.7067 28.2405 25.7067H30.5472C31.0672 25.7067 31.8272 25.4267 32.2272 25.08L34.3338 23.2667Z" fill="#FF6A0F"></path><path d="M42.1063 34.76C41.8529 34.4 41.4263 34.2 40.9196 34.2H38.3196C38.1463 34.2 37.9863 34.1333 37.8796 34C37.773 33.8666 37.7196 33.6933 37.7463 33.5066L38.0663 31.4266C38.1996 30.8133 37.7863 30.1066 37.173 29.9066C36.5996 29.6933 35.9196 29.9866 35.653 30.3866L33.0663 34.2266V33.7466C33.0663 32.8133 32.6663 32.4266 31.6796 32.4266H31.0263C30.0396 32.4266 29.6396 32.8133 29.6396 33.7466V40.12C29.6396 41.0533 30.0396 41.44 31.0263 41.44H31.6796C32.613 41.44 33.013 41.0799 33.053 40.2266L35.013 41.7333C35.2796 42 35.8796 42.1466 36.3063 42.1466H38.7729C39.6263 42.1466 40.4796 41.5066 40.6663 40.7199L42.2263 35.9733C42.3997 35.5466 42.3596 35.1066 42.1063 34.76Z" fill="#FF6A0F"></path></svg>