<svg xmlns="http://www.w3.org/2000/svg" width="72" height="72" viewBox="0 0 72 72" fill="none"><rect width="72" height="72" rx="12" fill="#FFF3EC"></rect><path opacity="0.4" d="M31.9998 22.6667C28.5065 22.6667 25.6665 25.5067 25.6665 29C25.6665 32.4267 28.3465 35.2 31.8398 35.32C31.9465 35.3067 32.0532 35.3067 32.1332 35.32C32.1598 35.32 32.1732 35.32 32.1998 35.32C32.2132 35.32 32.2132 35.32 32.2265 35.32C35.6398 35.2 38.3198 32.4267 38.3332 29C38.3332 25.5067 35.4932 22.6667 31.9998 22.6667Z" fill="#FF6A0F"></path><path d="M38.7733 38.8667C35.0533 36.3867 28.9866 36.3867 25.2399 38.8667C23.5466 40 22.6133 41.5333 22.6133 43.1733C22.6133 44.8133 23.5466 46.3333 25.2266 47.4533C27.0933 48.7067 29.5466 49.3333 31.9999 49.3333C34.4533 49.3333 36.9066 48.7067 38.7733 47.4533C40.4533 46.32 41.3866 44.8 41.3866 43.1467C41.3733 41.5067 40.4533 39.9867 38.7733 38.8667Z" fill="#FF6A0F"></path><path opacity="0.4" d="M46.6535 29.7866C46.8668 32.3733 45.0268 34.64 42.4801 34.9466C42.4668 34.9466 42.4668 34.9466 42.4535 34.9466H42.4135C42.3335 34.9466 42.2535 34.9466 42.1868 34.9733C40.8935 35.04 39.7068 34.6266 38.8135 33.8666C40.1868 32.64 40.9735 30.8 40.8135 28.8C40.7201 27.72 40.3468 26.7333 39.7868 25.8933C40.2935 25.64 40.8801 25.48 41.4801 25.4266C44.0935 25.2 46.4268 27.1466 46.6535 29.7866Z" fill="#FF6A0F"></path><path d="M49.32 42.12C49.2133 43.4133 48.3867 44.5333 47 45.2933C45.6667 46.0267 43.9867 46.3733 42.32 46.3333C43.28 45.4667 43.84 44.3867 43.9467 43.24C44.08 41.5867 43.2933 40 41.72 38.7333C40.8267 38.0267 39.7867 37.4667 38.6533 37.0533C41.6 36.2 45.3067 36.7733 47.5867 38.6133C48.8133 39.6 49.44 40.84 49.32 42.12Z" fill="#FF6A0F"></path></svg>