<svg xmlns="http://www.w3.org/2000/svg" width="72" height="72" viewBox="0 0 72 72" fill="none"><rect width="72" height="72" rx="12" fill="#F2EEFC"></rect><path opacity="0.4" d="M45.3332 32C45.3332 33.9334 44.7598 35.7067 43.7732 37.1867C42.3332 39.32 40.0532 40.8267 37.3998 41.2134C36.9465 41.2934 36.4798 41.3334 35.9998 41.3334C35.5198 41.3334 35.0532 41.2934 34.5998 41.2134C31.9465 40.8267 29.6665 39.32 28.2265 37.1867C27.2398 35.7067 26.6665 33.9334 26.6665 32C26.6665 26.84 30.8398 22.6667 35.9998 22.6667C41.1598 22.6667 45.3332 26.84 45.3332 32Z" fill="#5C28D4"></path><path d="M48.3333 44.6267L46.1333 45.1467C45.6399 45.2667 45.2533 45.64 45.1466 46.1334L44.6799 48.0934C44.4266 49.16 43.0666 49.48 42.3599 48.64L35.9999 41.3334L29.6399 48.6533C28.9333 49.4933 27.5733 49.1733 27.3199 48.1067L26.8533 46.1467C26.7333 45.6533 26.3466 45.2667 25.8666 45.16L23.6666 44.64C22.6533 44.4 22.2933 43.1333 23.0266 42.4L28.2266 37.2C29.6666 39.3333 31.9466 40.84 34.5999 41.2267C35.0533 41.3067 35.5199 41.3467 35.9999 41.3467C36.4799 41.3467 36.9466 41.3067 37.3999 41.2267C40.0533 40.84 42.3333 39.3333 43.7733 37.2L48.9733 42.4C49.7066 43.12 49.3466 44.3867 48.3333 44.6267Z" fill="#5C28D4"></path><path d="M36.7731 27.9733L37.5598 29.5466C37.6665 29.76 37.9465 29.9733 38.1998 30.0133L39.6265 30.2533C40.5331 30.4 40.7465 31.0666 40.0931 31.72L38.9865 32.8266C38.7998 33.0133 38.6931 33.3733 38.7598 33.64L39.0798 35.0133C39.3331 36.0933 38.7598 36.52 37.7998 35.9466L36.4665 35.16C36.2265 35.0133 35.8265 35.0133 35.5865 35.16L34.2531 35.9466C33.2931 36.5066 32.7198 36.0933 32.9731 35.0133L33.2931 33.64C33.3465 33.3866 33.2531 33.0133 33.0665 32.8266L31.9598 31.72C31.3065 31.0666 31.5198 30.4133 32.4265 30.2533L33.8531 30.0133C34.0931 29.9733 34.3731 29.76 34.4798 29.5466L35.2665 27.9733C35.6531 27.12 36.3465 27.12 36.7731 27.9733Z" fill="#292D32"></path></svg>