<svg xmlns="http://www.w3.org/2000/svg" width="72" height="72" viewBox="0 0 72 72" fill="none"><rect width="72" height="72" rx="12" fill="#EEF4F4"></rect><path opacity="0.4" d="M45.3337 32C45.3337 33.9334 44.7603 35.7067 43.7737 37.1867C42.3337 39.32 40.0537 40.8267 37.4003 41.2134C36.947 41.2934 36.4803 41.3334 36.0003 41.3334C35.5203 41.3334 35.0537 41.2934 34.6003 41.2134C31.947 40.8267 29.667 39.32 28.227 37.1867C27.2403 35.7067 26.667 33.9334 26.667 32C26.667 26.84 30.8403 22.6667 36.0003 22.6667C41.1603 22.6667 45.3337 26.84 45.3337 32Z" fill="#307B74"></path><path d="M48.3338 44.6267L46.1338 45.1467C45.6404 45.2667 45.2538 45.64 45.1471 46.1334L44.6804 48.0934C44.4271 49.16 43.0671 49.48 42.3604 48.64L36.0004 41.3334L29.6404 48.6533C28.9338 49.4933 27.5738 49.1733 27.3204 48.1067L26.8538 46.1467C26.7338 45.6533 26.3471 45.2667 25.8671 45.16L23.6671 44.64C22.6538 44.4 22.2938 43.1333 23.0271 42.4L28.2271 37.2C29.6671 39.3333 31.9471 40.84 34.6004 41.2267C35.0538 41.3067 35.5204 41.3467 36.0004 41.3467C36.4804 41.3467 36.9471 41.3067 37.4004 41.2267C40.0538 40.84 42.3338 39.3333 43.7738 37.2L48.9738 42.4C49.7071 43.12 49.3471 44.3867 48.3338 44.6267Z" fill="#307B74"></path><path d="M36.7736 27.9733L37.5603 29.5466C37.667 29.76 37.947 29.9733 38.2003 30.0133L39.627 30.2533C40.5336 30.4 40.747 31.0666 40.0936 31.72L38.987 32.8266C38.8003 33.0133 38.6936 33.3733 38.7603 33.64L39.0803 35.0133C39.3336 36.0933 38.7603 36.52 37.8003 35.9466L36.467 35.16C36.227 35.0133 35.827 35.0133 35.587 35.16L34.2536 35.9466C33.2936 36.5066 32.7203 36.0933 32.9736 35.0133L33.2936 33.64C33.347 33.3866 33.2536 33.0133 33.067 32.8266L31.9603 31.72C31.307 31.0666 31.5203 30.4133 32.427 30.2533L33.8536 30.0133C34.0936 29.9733 34.3736 29.76 34.4803 29.5466L35.267 27.9733C35.6536 27.12 36.347 27.12 36.7736 27.9733Z" fill="#307B74"></path></svg>