<svg xmlns="http://www.w3.org/2000/svg" width="72" height="72" viewBox="0 0 72 72" fill="none"><rect width="72" height="72" rx="12" fill="#FFF3EC"></rect><path opacity="0.4" d="M49.2934 28.5467V37.2134H22.6667V28.5467C22.6667 25.3067 25.3067 22.6667 28.5467 22.6667H43.4134C46.6534 22.6667 49.2934 25.3067 49.2934 28.5467Z" fill="#FF6A0F"></path><path d="M22.6667 37.2267V37.4934C22.6667 40.7467 25.3067 43.3734 28.5467 43.3734H33.6667C34.4001 43.3734 35.0001 43.9734 35.0001 44.7067V46C35.0001 46.7334 34.4001 47.3334 33.6667 47.3334H30.4401C29.8934 47.3334 29.4401 47.7867 29.4401 48.3334C29.4401 48.88 29.8801 49.3334 30.4401 49.3334H41.5734C42.1201 49.3334 42.5734 48.88 42.5734 48.3334C42.5734 47.7867 42.1201 47.3334 41.5734 47.3334H38.3467C37.6134 47.3334 37.0134 46.7334 37.0134 46V44.7067C37.0134 43.9734 37.6134 43.3734 38.3467 43.3734H43.4267C46.6801 43.3734 49.3067 40.7334 49.3067 37.4934V37.2267H22.6667Z" fill="#FF6A0F"></path></svg>