<svg xmlns="http://www.w3.org/2000/svg" width="72" height="72" viewBox="0 0 72 72" fill="none"><rect width="72" height="72" rx="12" fill="#EEF4F4"></rect><path opacity="0.4" d="M22.8 49.3334V28.0401C22.8 25.3601 24.1335 24.0134 26.7868 24.0134H35.0934C37.7468 24.0134 39.0667 25.3601 39.0667 28.0401V49.3334" fill="#307B74"></path><path d="M34.3334 32H27.7334C27.1867 32 26.7334 31.5467 26.7334 31C26.7334 30.4533 27.1867 30 27.7334 30H34.3334C34.8801 30 35.3334 30.4533 35.3334 31C35.3334 31.5467 34.8801 32 34.3334 32Z" fill="#307B74"></path><path d="M34.3334 37H27.7334C27.1867 37 26.7334 36.5467 26.7334 36C26.7334 35.4533 27.1867 35 27.7334 35H34.3334C34.8801 35 35.3334 35.4533 35.3334 36C35.3334 36.5467 34.8801 37 34.3334 37Z" fill="#307B74"></path><path d="M31 50.3333C30.4533 50.3333 30 49.88 30 49.3333V44.3333C30 43.7866 30.4533 43.3333 31 43.3333C31.5467 43.3333 32 43.7866 32 44.3333V49.3333C32 49.88 31.5467 50.3333 31 50.3333Z" fill="#307B74"></path><path d="M50.6666 48.3334H47.6399V44.3334C48.9066 43.92 49.8266 42.7334 49.8266 41.3334V38.6667C49.8266 36.92 48.3999 35.4933 46.6532 35.4933C44.9066 35.4933 43.4799 36.92 43.4799 38.6667V41.3334C43.4799 42.72 44.3865 43.8933 45.6265 44.32V48.3334H21.3333C20.7866 48.3334 20.3333 48.7867 20.3333 49.3334C20.3333 49.88 20.7866 50.3334 21.3333 50.3334H46.5732C46.5999 50.3334 46.6132 50.3467 46.6399 50.3467C46.6666 50.3467 46.68 50.3334 46.7066 50.3334H50.6666C51.2132 50.3334 51.6666 49.88 51.6666 49.3334C51.6666 48.7867 51.2132 48.3334 50.6666 48.3334Z" fill="#307B74"></path></svg>